#format: frame checksums
#version: 2
#hash: MD5
#extradata 0,                              42, e89deaac1c1a77d78033d7d9c66b8264
#tb 0: 1/61440
#media_type 0: video
#codec_id 0: ffv1
#dimensions 0: 640x360
#sar 0: 0/1
#stream#, dts,        pts, duration,     size, hash
0,          0,          0,     2048,    18037, a2977d9fc76e923df93ea287c03e41b2
0,       2048,       2048,     2048,    17557, 720c070944045a92c5eaac5572cc6360
0,       4096,       4096,     2048,    19122, c73558e3e5de4494b8d880987ac66260
0,       6144,       6144,     2048,    17877, 593010ed8edfccedf37b4a91a160f8cd
0,       8192,       8192,     2048,    17911, 44d149c13947572f0a85f100e2ae175c
0,      10240,      10240,     2048,    18858, 32d0eeb09f305c1624dc424edef1a18e
0,      12288,      12288,     2048,    18098, 45f03cb9a376474bb00dd3f11ee929d7
0,      14336,      14336,     2048,    18159, 37e8d6de941d166c991af6732ed58f3f
0,      16384,      16384,     2048,    18845, 57b206de9e5a8457c6cfa2c260c3f801
0,      18432,      18432,     2048,    19501, 703bce35e38466771801bf2ab2e42e12
0,      20480,      20480,     2048,    19567, 6855fe2494058ceeb24e7ce9ae132c99
0,      22528,      22528,     2048,    18226, a676f845d4a35faa1317dd1906c3e75a
0,      24576,      24576,     2048,    19827, 9230a4ef067cf6281e2231d5a5109568
0,      26624,      26624,     2048,    19768, 8ef69750769f9201ad8cce3925e6fc1a
0,      28672,      28672,     2048,    18734, 20df66e14f577a711c9a3d7aabbe5cd7
0,      30720,      30720,     2048,    19580, f54fa22c23affc02f692f256cef15257
0,      32768,      32768,     2048,    19649, fd4fc1e9bdaa69c6d50218409fed9e86
0,      34816,      34816,     2048,    19678, 0045836e774b601d0bfceaf3ad6b75d3
0,      36864,      36864,     2048,    20343, 3f8fda5cf148a56370f4eaf15f8139ad
0,      38912,      38912,     2048,    19318, 231e41c4da55ef26af25969b042c3fd1
0,      40960,      40960,     2048,    18972, e9b40f3881c886e7906666e4e16beffc
0,      43008,      43008,     2048,    17246, 02b335b2f4ce6905ce4e148927624665
0,      45056,      45056,     2048,    17457, 40f5338e21e024acc297a0b99ea7bac7
0,      47104,      47104,     2048,    18804, f81f37e3c2d0a7ccbbf4b7d254e1fe8d
0,      49152,      49152,     2048,    17352, 5702a137ac17a4923d201f8845e20f8c
0,      51200,      51200,     2048,    18754, 90908847396d51a1a52e618900a00b69
0,      53248,      53248,     2048,    17633, 7f74b34e1320ac517dd88cc447bcc215
0,      55296,      55296,     2048,    17420, d86cc883fec583969c8d801a4034b3d6
0,      57344,      57344,     2048,    19738, 2d5930a90048a9d35667a079b9bab24c
0,      59392,      59392,     2048,    19738, 2d5930a90048a9d35667a079b9bab24c
